<?xml version="1.0" encoding="UTF-8" standalone="no"?>
<svg
  xmlns:dc="http://purl.org/dc/elements/1.1/"
  xmlns:cc="http://creativecommons.org/ns#"
  xmlns:rdf="http://www.w3.org/1999/02/22-rdf-syntax-ns#"
  xmlns:svg="http://www.w3.org/2000/svg"
  xmlns="http://www.w3.org/2000/svg"
  version="1.1"
  id="frog_king_head"
  x="0px"
  y="0px"
  width="38"
  height="44"
  viewBox="0 0 38 44"
  xml:space="preserve">
  <path
    style="fill:#ffffff"
    id="eye"
    d="m 25.572915,14.71403 c -0.32978,0.002 -0.66321,0.0606 -0.97566,0.14919 -0.79195,0.23402 -1.24799,0.58269 -1.71276,1.25412 -0.21122,0.31193 -0.57618,0.99195 -0.36093,1.34519 0.25343,0.39845 0.73697,0.52171 1.19718,0.5191 1.20577,0.0478 2.3189,-0.51506 2.88635,-1.45112 0.20717,-0.372 0.38229,-0.81332 0.26215,-1.24942 -0.0509,-0.16392 -0.17108,-0.30698 -0.3273,-0.38282 -0.30842,-0.13433 -0.63768,-0.18632 -0.96903,-0.18424 l 0,0 z"/>
    <path
    style="fill:#ffffff"
    id="head"
    d="m 24.606895,10.71416 c -0.1944,0 -0.38738,0.0102 -0.5767,0.0295 -0.0947,0.01 -0.18737,0.0214 -0.2804,0.0357 -0.18632,0.0289 -0.37056,0.0671 -0.55024,0.11401 -0.35989,0.0941 -0.70439,0.22398 -1.03274,0.38477 -0.16392,0.0799 -0.32418,0.16795 -0.47897,0.26359 -0.1548,0.0951 -0.3049,0.19649 -0.4494,0.30646 -0.21734,0.16496 -0.42099,0.34607 -0.61227,0.54047 -0.0637,0.0646 -0.12521,0.13082 -0.1858,0.19858 -0.12066,0.13486 -0.23767,0.27427 -0.34503,0.42034 -5.2e-4,5.2e-4 3.9e-4,0.003 0,0.003 -0.10802,0.14607 -0.20978,0.29669 -0.30346,0.45292 -5.2e-4,5.2e-4 5.2e-4,0.003 0,0.003 -0.093,0.15622 -0.18164,0.31662 -0.2606,0.48249 0,5.2e-4 5.2e-4,0.002 0,0.003 -0.15727,0.33239 -0.28548,0.68159 -0.3776,1.04551 0,10e-4 0,0.002 0,0.004 -0.0229,0.0902 -0.0433,0.18176 -0.0622,0.27336 0,10e-4 5.2e-4,0.002 0,0.004 -0.0182,0.0916 -0.0345,0.1832 -0.0489,0.27688 0,10e-4 5.2e-4,0.002 0,0.003 -0.0137,0.0936 -0.0259,0.18828 -0.0356,0.2834 0,10e-4 0,0.002 0,0.003 -0.01,0.0951 -0.0179,0.19037 -0.0229,0.28653 0,0.002 0,0.003 0,0.004 -0.005,0.0963 -0.007,0.19544 -0.007,0.29317 0,0.13537 0.004,0.26724 0.0133,0.40066 0,9.1e-4 0,0.002 0,0.003 0.0463,0.66569 0.25655,1.44708 0.45604,1.88319 0.19948,0.43571 0.42803,0.58842 0.0844,0.89892 -0.45552,0.26659 -0.82856,-0.81136 -1.02244,-1.43327 -0.15727,-0.55885 -0.24131,-1.14779 -0.24131,-1.75602 0,-0.18529 0.0107,-0.36848 0.0259,-0.55025 -1.24643,-0.0997 -2.45377,-0.25955 -3.43295,-0.45291 -1.89948,0.91052 -4.42399,2.79123 -5.9484697,4.27688 -0.006,0.006 -0.0107,0.0138 -0.0163,0.0198 -0.66517,0.74321 -1.31457,1.52187 -1.94117,2.27668 -1.46128,1.76176 -3.4564,3.8026 -4.79143,5.01997 -1.33555003,1.2175 -1.54780003,2.65221 -0.49526,4.63547 1.65817,3.0801 4.26868,5.94299 6.83397,7.81784 3.7751097,2.72583 8.4113597,4.33239 13.4237697,4.33239 0.61787,0 1.44851,-0.45682 2.04254,-0.90569 2.05831,-1.55589 2.50771,-3.73837 4.94831,-5.95121 0.64184,-0.58256 1.31822,-1.14141 1.97075,-1.68084 1.65321,-1.3676 3.36076,-2.78107 4.64484,-4.68106 0.0198,-0.0296 1.96215,-2.96271 1.34884,-4.11766 -0.10685,-0.15597 -0.29877,-0.11401 -0.50191,0.0232 -1.55588,1.04876 -4.77983,2.14665 -6.51487,2.53389 -1.91889,0.42855 -3.45848,0.49214 -4.5767,0.57696 -1.83889,0.13916 -4.08456,-0.3978 -4.08456,-0.3978 -0.14659,-0.0326 -0.2718,-0.0982 -0.34555,-0.20209 -0.0737,-0.10332 -0.0831,-0.24639 -0.01,-0.38737 0.0601,-0.11558 0.17811,-0.15519 0.26724,-0.16639 0.089,-0.0107 0.16287,0.004 0.16287,0.004 10e-4,0 0.002,0 0.003,0 0,0 2.22417,0.51402 3.89615,0.38737 1.13658,-0.086 2.62628,-0.15427 4.48862,-0.57005 1.62064,-0.36184 4.88667,-1.49074 6.31942,-2.45272 0.26972,-0.18124 0.60367,-0.31102 0.69371,-0.59298 0.49265,-1.53712 -1.1259,-3.58318 -2.45637,-5.03874 -1.12942,-1.23626 -3.24519,-2.82276 -4.00665,-3.29965 l 0,-0.004 c 0.0117,-0.14919 0.0198,-0.29734 0.0198,-0.44952 0,-1.56657 -0.62191,-2.98707 -1.62872,-4.01981 -0.007,-0.007 -0.0133,-0.0128 -0.0198,-0.0194 -0.004,-0.005 -0.009,-0.009 -0.0128,-0.0132 -0.007,-0.007 -0.0133,-0.0128 -0.0198,-0.0194 -0.0687,-0.0687 -0.1389,-0.13681 -0.21173,-0.20196 -0.0179,-0.0163 -0.0366,-0.0326 -0.055,-0.0489 -0.0672,-0.0592 -0.1359,-0.11714 -0.20561,-0.17265 -0.008,-0.007 -0.0173,-0.0126 -0.0259,-0.0193 -0.0804,-0.0636 -0.16339,-0.12365 -0.2473,-0.18268 -0.0844,-0.0595 -0.16952,-0.11766 -0.2576,-0.17264 -0.0203,-0.0126 -0.0412,-0.0233 -0.0616,-0.0356 -0.032,-0.0193 -0.0625,-0.0403 -0.0947,-0.059 -0.0356,-0.0208 -0.0713,-0.0417 -0.10736,-0.0616 -0.23923,-0.13186 -0.48757,-0.24587 -0.74622,-0.34203 -0.17251,-0.0641 -0.34763,-0.11909 -0.52783,-0.16639 -0.17968,-0.0469 -0.36392,-0.0851 -0.55025,-0.11401 -0.27909,-0.0433 -0.56523,-0.0652 -0.85631,-0.0652 l 0,0 z m 0.0911,1.94482 c 0.059,0 0.12117,10e-4 0.18215,0.004 1.93713,0.0753 3.42435,1.79615 3.35516,3.86006 -0.14815,2.03942 -1.80488,3.85954 -4.13994,3.61576 -1.82312,-0.19141 -3.06564,-1.81648 -2.96127,-3.8112 0.10893,-2.03395 1.68175,-3.6383 3.5639,-3.66814 l 0,0 z"/>
    <path
    style="fill:#ffffff"
    id="crown"
    d="m 21.075575,0.19929 c -1.18558,0.0203 -2.40542,1.27092 -1.81452,2.40386 0.30893,0.59246 0.74621,0.67793 0.35532,1.54115 -0.39142,0.8627 -0.81032,2.63501 -1.10454,3.22786 -0.55676,0.67846 -4.26411,-3.26095 -4.76549,-3.6452 0.71311,-1.14375 -0.37722,-2.73833 -1.61543,-2.61207 -1.39366,0.14137 -1.91081,1.33346 -1.55393,2.20841 0.35623,0.87495 1.50246,1.36812 2.34535,2.67422 0.84277,1.30598 1.82717,2.44712 2.28985,5.10753 0.23258,1.33712 0.0788,2.59071 -0.11101,3.60963 0.93658,0.17864 2.10013,0.32575 3.29665,0.41995 0.59195,-2.92009 3.14864,-5.13359 6.20907,-5.13359 1.0287,0 2.00033,0.25044 2.8599,0.69371 0.0734,-0.51403 0.20313,-1.01945 0.41995,-1.4592 0.81488,-1.65218 1.8613,-3.17952 2.79175,-4.76902 1.23783,0.30789 2.74902,-0.78595 2.42014,-2.1301 -0.40613,-1.74729 -3.15463,-1.94117 -3.88599,-0.33904 -1.22206,2.78107 -3.59438,4.02502 -5.10753,5.37477 -0.45043,0.14255 -0.44184,-0.40353 -0.56041,-0.69722 -0.42398,-1.05306 -0.76849,-2.13675 -1.15287,-3.20506 1.21802,-0.65148 1.02818,-2.54588 -0.22802,-3.04922 -0.31206,-0.12469 -0.63872,-0.20105 -0.97423,-0.21785 -0.0382,-0.002 -0.0758,-0.004 -0.11401,-0.004 l 0,0 z"/>
  </svg>
