<?xml version="1.0" encoding="UTF-8" standalone="no"?>
<!-- Generator: Adobe Illustrator 15.0.0, SVG Export Plug-In . SVG Version: 6.00 Build 0)  -->

<svg
   xmlns:dc="http://purl.org/dc/elements/1.1/"
   xmlns:cc="http://creativecommons.org/ns#"
   xmlns:rdf="http://www.w3.org/1999/02/22-rdf-syntax-ns#"
   xmlns:svg="http://www.w3.org/2000/svg"
   xmlns="http://www.w3.org/2000/svg"
   xmlns:sodipodi="http://sodipodi.sourceforge.net/DTD/sodipodi-0.dtd"
   xmlns:inkscape="http://www.inkscape.org/namespaces/inkscape"
   version="1.1"
   id="Layer_1"
   x="0px"
   y="0px"
   width="462.171px"
   height="226px"
   viewBox="0 0 462.171 226"
   enable-background="new 0 0 462.171 226"
   xml:space="preserve"
   inkscape:version="0.91 r13725"
   sodipodi:docname="rex-rana-h-white.svg"
   inkscape:export-filename="/home/peter/Dropbox/work/Rex Rana logos/output/rex-rana-h-white.png"
   inkscape:export-xdpi="96"
   inkscape:export-ydpi="96"><metadata
     id="metadata37"><rdf:RDF><cc:Work
         rdf:about=""><dc:format>image/svg+xml</dc:format><dc:type
           rdf:resource="http://purl.org/dc/dcmitype/StillImage" /></cc:Work></rdf:RDF></metadata><defs
     id="defs35" /><sodipodi:namedview
     pagecolor="#ffffff"
     bordercolor="#666666"
     borderopacity="1"
     objecttolerance="10"
     gridtolerance="10"
     guidetolerance="10"
     inkscape:pageopacity="0"
     inkscape:pageshadow="2"
     inkscape:window-width="1066"
     inkscape:window-height="733"
     id="namedview33"
     showgrid="false"
     inkscape:zoom="0.65343781"
     inkscape:cx="231.08549"
     inkscape:cy="113"
     inkscape:window-x="65"
     inkscape:window-y="24"
     inkscape:window-maximized="0"
     inkscape:current-layer="Layer_1" /><g
     id="rex_rana_h_simple"><g
       id="g4"><path
         fill="#FFFFFF"
         d="M205.355,88.24c-0.08,0.56-0.08,1.04-0.08,1.44c0,1.04,0.08,1.92,0.159,2.8    c3.28-4.56,6.561-5.12,10.961-5.12c0.8,0,1.6,0.08,2.399,0.24c-0.479,2.64-0.72,5.04-0.8,7.2c-1.04,0-1.84-0.08-2.399-0.08    c-7.2,0-9.28,4-9.28,6.96c0,3.68,0.319,16.96,0.319,32.72c0,4.24,0.16,9.44,1.28,10.721c-1.84-0.319-4.16-0.479-6.4-0.479    c-1.279,0-2.479,0.08-3.52,0.159c1.2-7.36,1.439-13.28,1.439-20.081c0-19.6-0.8-32.081-1.439-36.48H205.355z"
         id="path6" /><path
         fill="#FFFFFF"
         d="M249.298,123.761c1.041,0,2.24-0.079,3.441-0.239c-0.4,13.119-4.4,21.68-15.281,21.68    c-15.12,0-18.641-16.96-18.641-28c0-17.36,2.4-30.161,17.521-30.161c3.279,0,6.959,0.48,9.92,3.28    c4.4,4.24,4.959,11.681,4.959,17.841c0,2-0.078,4.16-0.078,6.8c-4.561,0.16-9.2,0.32-14.001,0.32c-3.521,0-7.12-0.08-10.96-0.32    c-0.08,0.96-0.16,1.92-0.16,2.88c0,1.28,0.08,2.4,0.08,3.601c0,11.84,7.199,16.399,11.92,16.399c3.921,0,5.921-3.84,6.32-5.76    c0.32-1.36,0.399-2.562,0.399-3.521c0-2-0.479-3.44-1.36-5.44C245.378,123.521,247.298,123.761,249.298,123.761z M236.58,93.52    c-8.081,0-10.161,13.2-10.161,14.081c3.68,0.16,7.28,0.4,10.799,0.4c2.48,0,4.881-0.08,7.201-0.32    C243.779,96.24,238.899,93.52,236.58,93.52z"
         id="path8" /><path
         fill="#FFFFFF"
         d="M285.257,90c-6.159,8.96-11.52,18.48-15.279,26c2.48,9.76,5.279,16.96,10.881,27.761    c-2.88,0.8-5.841,1.439-8.721,2.24c-1.76-8.16-3.6-14.8-6.08-22.401c-2.96,8.481-4.641,16.161-5.52,23.361    c-2.881-0.96-5.762-2.32-8.642-3.279c4.72-9.841,7.84-18.24,10.8-27.521c-2.398-8.64-4.318-14-9.92-26.881    c3.04-0.8,6.24-1.36,9.28-2.16c0.562,4.72,2.319,13.44,4.96,22c3.92-7.12,7.04-14.48,9.359-21.841L285.257,90z"
         id="path10" /><path
         fill="#FFFFFF"
         d="M310.537,88.24c-0.08,0.56-0.08,1.04-0.08,1.44c0,1.04,0.08,1.92,0.16,2.8    c3.279-4.56,6.561-5.12,10.961-5.12c0.799,0,1.6,0.08,2.398,0.24c-0.479,2.64-0.721,5.04-0.801,7.2c-1.039,0-1.84-0.08-2.398-0.08    c-7.199,0-9.279,4-9.279,6.96c0,3.68,0.318,16.96,0.318,32.72c0,4.24,0.16,9.44,1.28,10.721c-1.841-0.319-4.16-0.479-6.4-0.479    c-1.278,0-2.479,0.08-3.521,0.159c1.201-7.36,1.439-13.28,1.439-20.081c0-19.6-0.8-32.081-1.439-36.48H310.537z"
         id="path12" /><path
         fill="#FFFFFF"
         d="M348.345,145.761c-0.399-0.8-0.801-2.479-0.961-3.52c-1.199,1.438-3.92,3.358-8.959,3.358    c-8.641,0-14.32-8.24-14.32-19.039c0-13.36,6.24-20,14.561-20c4.961,0,7.439,1.68,9.041,3.28c0.08-1.68,0.08-3.04,0.08-4.56    c0-7.52-3.121-11.68-7.121-11.68c-3.119,0-7.76,1.12-7.76,9.52c-1.681-0.32-3.281-0.48-5.041-0.48c-0.8,0-1.6,0-2.479,0.08    c2.158-12.96,7.92-15.92,15.439-15.92c3.84,0,7.279,1.44,9.68,3.92c3.041,3.2,3.602,9.44,3.602,15.84    c0,8.56-0.24,19.2-0.24,27.281c0,5.438,0.881,8.24,2.881,10.96C353.705,144.801,351.384,144.961,348.345,145.761z     M346.585,128.801c0-2.64,0.08-5.52,0.319-8.88c0-3.44-3.04-6.319-6.881-6.319c-7.12,0-8,8.879-8,11.439    c0,5.92,2,12.96,7.92,12.96c2.802,0,5.761-0.961,6.722-2.16C346.585,133.521,346.585,131.441,346.585,128.801z"
         id="path14" /><path
         fill="#FFFFFF"
         d="M366.656,102.4c-0.4,6.4-0.561,15.36-0.561,24.48c0,6.399,0.08,12.88,0.24,18.56    c-1.201-0.08-2.4-0.16-3.681-0.16c-1.2,0-2.399,0.08-3.601,0.16c1.279-10.799,1.68-21.68,1.68-33.041    c0-7.84-0.158-15.92-0.318-24.24c1.6,0.16,3.119,0.16,4.719,0.16c1.521,0,3.041,0,4.562-0.16    c4.08,13.84,9.841,30.562,13.36,35.681c0-5.92,0.08-11.84,0.08-17.76c0-6-0.16-12-0.561-18.081c1.6,0.16,3.359,0.24,5.119,0.24    c1.2,0,2.48-0.08,3.682-0.16c-1.36,3.6-2.562,25.76-2.562,42.721c0,5.601,0.08,10.72,0.399,14.32    c-2.16,0.08-4.399,0.159-6.721,0.562C378.977,132.641,370.096,110.241,366.656,102.4z"
         id="path16" /><path
         fill="#FFFFFF"
         d="M417.791,145.761c-0.398-0.8-0.799-2.479-0.959-3.52c-1.201,1.438-3.92,3.358-8.961,3.358    c-8.641,0-14.32-8.24-14.32-19.039c0-13.36,6.24-20,14.563-20c4.959,0,7.438,1.68,9.039,3.28c0.08-1.68,0.08-3.04,0.08-4.56    c0-7.52-3.119-11.68-7.119-11.68c-3.121,0-7.762,1.12-7.762,9.52c-1.68-0.32-3.279-0.48-5.041-0.48c-0.799,0-1.6,0-2.479,0.08    c2.16-12.96,7.92-15.92,15.439-15.92c3.842,0,7.279,1.44,9.682,3.92c3.039,3.2,3.6,9.44,3.6,15.84c0,8.56-0.238,19.2-0.238,27.281    c0,5.438,0.879,8.24,2.879,10.96C423.152,144.801,420.832,144.961,417.791,145.761z M416.031,128.801c0-2.64,0.08-5.52,0.32-8.88    c0-3.44-3.041-6.319-6.881-6.319c-7.121,0-8,8.879-8,11.439c0,5.92,2,12.96,7.92,12.96c2.801,0,5.762-0.961,6.721-2.16    C416.031,133.521,416.031,131.441,416.031,128.801z"
         id="path18" /></g></g><g
     id="solid_black"><path
       fill="#FFFFFF"
       d="M146.428,148.641c-1.312-1.026-2.958-1.344-4.439-0.875c-2.032,0.646-2.331-0.186-1.048-0.904   c0.357-0.2,3.394-0.819,2.493-3.696c-0.27-0.856-2.604-2.771-4.738-0.822c-2.37,2.164-3.673,2.947-5.581,2.841   c-0.679-0.039-1.623-0.636-2.556-1.388c-0.025-0.021-0.046-0.039-0.069-0.06c-0.231,0.611-0.474,1.222-0.729,1.824   c-0.975,2.31-2.12,4.51-3.424,6.604c0.011,0.008,0.022,0.017,0.033,0.022c0.71,0.543,1.339,0.965,1.852,1.283   c1.187,0.736-1.055,2.42-1.072,4.113s1.417,2.344,2.021,2.414s2.514-0.799,2.859-1.873c0.501-1.551-0.244-3.016,0.887-3.73   c1.922-1.211,5.014,1.75,6.069,3.621c1.055,1.873,2.597,2.019,3.687,1.765c1.088-0.255,1.922-1.699,1.778-2.677   c-0.144-0.979-0.48-2.457-2.439-3.244c-1.693-0.682-0.88-1.922,0.212-1.295c0.8,0.459,1.955,0.896,3.426,0.658   c0.669-0.108,1.54-0.733,1.823-1.945C147.706,150.275,147.422,149.422,146.428,148.641z"
       id="path21" /><g
       id="g23"><g
         id="g25"><path
           fill="#FFFFFF"
           d="M139.227,64.52c-0.652,0.004-1.312,0.119-1.93,0.295c-1.566,0.463-2.469,1.152-3.388,2.48     c-0.418,0.617-1.141,1.962-0.714,2.66c0.501,0.789,1.457,1.032,2.368,1.028c2.385,0.094,4.586-1.02,5.709-2.87     c0.41-0.737,0.757-1.61,0.519-2.473c-0.101-0.324-0.339-0.607-0.647-0.757C140.534,64.619,139.882,64.515,139.227,64.52     L139.227,64.52z"
           id="path27" /></g></g><path
       fill="#FFFFFF"
       d="M153.692,38.836c-0.793-1.756-3.446-2.388-5.644-1.556c-3.618,1.371-7.69,10.588-10.934,11.198   c-1.33,0.25-2.992-0.808-2.868-5.009c0.124-4.2-1.934-7.422-3.945-7.26c-2.011,0.161-3.8,0.41-3.705,8.238   c0.096,7.829-4.446,3.7-6.698,1.503c-2.252-2.197-3.745-6.047-3.745-6.047s-0.641-1.391-1.082-1.735   c-0.785-0.612-1.762-1.078-2.891-1.078c-2.257,0-4.086,1.647-4.086,3.679c0,0.72,0.381,1.402,0.83,2.014   c0.942,1.284,3.043,2.08,4.105,3.615c2.767,4.002,3.823,7.668,5.088,13.605c0.37,1.739,0.548,3.199,0.608,4.41   c0.127,0.044,0.246,0.082,0.298,0.096c0.563,0.106,3.026,0.556,5.779,0.778c1.099-5.873,6.2-10.33,12.312-10.33   c2.108,0,4.096,0.532,5.841,1.469c0.696-4.24,3.98-9.63,5.825-11.555C151.001,42.554,154.674,41.01,153.692,38.836z"
       id="path29" /><path
       fill="#FFFFFF"
       d="M161.731,88.11c-0.075,0.043-0.145,0.083-0.205,0.118c-3.024,1.814-9.457,4.426-12.998,5.276   c-3.358,0.808-6.095,1.048-8.293,1.241c-0.303,0.026-0.596,0.052-0.876,0.078c-0.531,0.05-1.084,0.07-1.64,0.07   c-3.182,0-6.492-0.689-6.655-0.724c-0.865-0.183-1.418-1.032-1.235-1.896c0.183-0.864,1.032-1.417,1.896-1.235   c0.042,0.009,4.259,0.886,7.338,0.599c0.286-0.026,0.584-0.053,0.893-0.079c2.094-0.185,4.698-0.413,7.825-1.165   c3.243-0.779,9.355-3.26,12.11-4.915c0.008-0.005,0.016-0.01,0.023-0.015c0.492-0.283,0.989-0.571,1.488-0.86   c0.047-2.996-2.659-6.634-5.067-9.269c-2.151-2.354-4.715-4.478-7.592-6.318c-0.121-0.271-0.22-0.546-0.301-0.818   c0.003-0.097,0.006-0.193,0.006-0.291c0-0.938-0.114-1.845-0.325-2.715c0-0.001,0-0.004,0-0.004h-0.001   c-1.199-4.928-5.582-8.582-10.807-8.582c-5.86,0-10.659,4.597-11.098,10.43c-0.034,0.001-0.068,0.003-0.103,0.004l0.018-0.023   c-3.152-0.165-5.305-0.513-7.188-0.886l-0.689-0.221c-4.898,2.268-8.967,5.529-11.984,8.472c-0.012,0.011-0.022,0.022-0.033,0.034   c-1.316,1.471-2.598,3.015-3.838,4.509c-2.891,3.483-5.879,7.086-9.477,9.927c-2.815,2.223-5.907,4.223-8.95,6.146   c-0.404,0.256-0.808,0.51-1.21,0.763c-0.256,0.162-0.514,0.324-0.771,0.486c-2.538,1.601-5.132,3.258-7.575,5.041   c-10.701,7.815-19.491,17.142-26.87,28.515c-2.818,4.342-6.688,10.92-9.124,17.596c-2.759,7.561-3.165,13.742-1.207,18.377   c1.446,3.422,4.229,5.83,8.159,7.59c-0.609-1.057-1.017-2.209-1.104-3.438c-0.31-4.319,2.199-9.098,4.65-12.129   c4.985-6.159,14.421-10.631,21.563-12.328c0.59-0.141,1.184,0.226,1.324,0.814c0.141,0.592-0.225,1.186-0.815,1.325   c-6.778,1.611-15.702,5.814-20.361,11.572c-2.087,2.58-4.431,6.9-4.166,10.586c0.232,3.236,3.823,6.344,7.083,7.623   c0.604,0.238,1.741,0.617,1.752,0.621c1.001,0.35,1.994,0.691,2.985,1.031c1.938,0.625,3.999,1.223,6.117,1.84   c5.251,1.529,10.687,2.402,14.578,3.514c6.5,1.857,5.313,4.246,7.416,5.345c0.64,0.334,3.653,0.879,3.602-2.419   c-0.028-1.817-1.543-4.534-4.93-5.243c-4.337-0.908-5.824-3.193-0.895-1.541c4.815,1.612,6.481,4.467,9.007,4.828   c1.504,0.217,2.583-0.703,2.136-3.287c-0.447-2.584-7.302-4.152-10.476-4.677c-1.926-0.317-0.667-2.465,4.744-1.239   c2.927,1.133,5.168,1.412,5.996,0.746c0.396-0.316,0.521-0.978,0.37-1.959c-0.017-0.111-0.038-0.216-0.061-0.313l0,0   c0,0-0.006-0.031-0.022-0.084c-0.185-0.695-0.51-0.99-0.755-1.154c-0.178-0.119-0.388-0.207-0.621-0.276   c-0.752-0.343-1.902-0.533-3.656-0.256c-4.604,0.729-6.133-0.207-5.896-1.029c0.435-1.506,2.646-0.834,3.574-1.705   c0.004-0.004,0.008-0.008,0.012-0.012c0.237-0.183,0.425-0.42,0.521-0.736c0.243-0.801-0.162-1.883-0.884-2.362   c-0.418-0.279-1.925-0.631-7.194,1.301c-0.417,0.158-2.09,0.916-2.479,1.076c-0.666,0.272-1.396,0.625-2.171,0.998   c-2.55,1.229-4.959,2.391-6.526,1.532c-0.849-0.467-1.037-1.143-1.073-1.504c-0.118-1.172,0.92-2.196,1.711-2.866   c0.009-0.009,0.349-0.289,0.467-0.382c0.961-0.752,1.997-1.422,2.999-2.067c0.683-0.441,1.327-0.857,1.953-1.299   c5.873-4.15,9.95-8.748,12.117-13.664c2.52-5.715,0.831-9.984-1.03-12.561c-3.294-4.561-9.667-7.223-15.861-6.629   c-12.063,1.156-18.918,8.3-24.53,15.848c-0.362,0.487-1.052,0.59-1.539,0.227c-0.487-0.361-0.589-1.051-0.226-1.539   c5.914-7.953,13.168-15.484,26.085-16.725c6.945-0.666,14.119,2.359,17.854,7.53c3.106,4.3,3.553,9.531,1.259,14.734   c-2.33,5.286-6.657,10.188-12.86,14.573c-0.663,0.468-1.357,0.916-2.029,1.351c-0.96,0.621-1.954,1.262-2.837,1.953   c-0.105,0.082-0.409,0.334-0.41,0.336c-0.434,0.366-0.668,0.629-0.794,0.799c0.838,0.041,3.151-1.067,4.315-1.629   c0.427-0.207,1.911-0.812,3.343-1.371c0.529-0.209,1.037-0.403,1.525-0.584c0.531-0.196,0.977-0.356,1.25-0.442   c0.001,0,0.002,0,0.003,0c3.994-1.354,6.454-1.55,7.786-0.66c1.463,0.975,2.189,2.955,1.688,4.606   c-0.099,0.326-0.309,0.826-0.744,1.308c2.326-0.438,4.52-0.529,6.008,0.469c0.313,0.209,0.581,0.463,0.813,0.752   c2.27-0.773,4.457-1.65,6.552-2.625c0,0,0.002-0.002,0.003-0.002c0,0,0.001,0,0.002,0c0.217-0.102,0.435-0.203,0.65-0.305   c0.397-0.191,0.791-0.388,1.182-0.584c0.124-0.063,0.245-0.129,0.369-0.191c-3.839-4.051-5.229-5.752-8.873-13.768   c-3.106-6.836-3.425-13.98-0.975-21.849c4.478-14.375,11.059-21.606,11.336-21.907c0.375-0.406,1.008-0.432,1.413-0.057   c0.366,0.338,0.419,0.884,0.152,1.285c-0.029,0.044-0.059,0.088-0.096,0.127c-0.065,0.071-6.564,7.236-10.896,21.146   c-2.298,7.375-2.008,14.057,0.887,20.424c2.439,5.367,2.98,6.476,3.386,7.035c0.004,0.101,3.064,4.316,5.692,7.08   c0.364,0.383,0.751,0.791,1.163,1.228c1.865,1.973,2.653,5.165,3.226,8.325c0.144,1.009,0.372,2.521,0.707,4.041   c0.165,0.853,0.32,1.502,0.486,2.047c0.156,0.513,0.346,1.009,0.562,1.478c0.001,0.002,0.003,0.006,0.003,0.009   c0.834,1.987,2.042,3.131,3.313,3.131c0.349,0,0.684-0.088,0.997-0.259c0.472-0.258,0.83-0.604,1.063-1.028   c0.251-0.381,0.298-0.697,0.316-0.818c0.035-0.236,0.031-0.484-0.012-0.76c-0.103-1.426-1.011-3.059-1.742-4.373   c-0.093-0.168-0.185-0.332-0.271-0.49c-0.688-1.26-0.633-2.217-0.351-2.691c0.102-0.172,0.29-0.379,0.608-0.379   c0.412,0,0.894,0.334,1.319,0.912c0.328,0.447,0.65,0.996,0.991,1.578c1.059,1.805,2.259,3.85,4.433,4.258   c0.247,0.045,0.479,0.068,0.69,0.068c0.001,0,0.001,0,0.001,0c0.787,0,1.213-0.328,1.432-0.604c0.373-0.474,0.46-1.158,0.26-2.037   c-0.016-0.152-0.057-0.304-0.125-0.459c-0.346-1.092-1.01-2.197-1.457-2.642c-0.024-0.022-0.066-0.063-0.123-0.119   c-3.506-3.385-4.279-5.021-4.183-5.454c0.003-0.019,0.01-0.048,0.118-0.087c0.241-0.081,0.494-0.125,0.75-0.125   c1.717,0,3.5,1.83,4.802,3.166c0.241,0.246,0.467,0.478,0.672,0.679c0.754,0.731,1.944,1.682,3.342,2.053   c0.166,0.051,0.329,0.086,0.485,0.104c0.105,0.018,0.212,0.031,0.318,0.039c0.081,0.008,0.16,0.01,0.237,0.01   c0.783,0,1.464-0.346,1.869-0.949c0.437-0.647,0.505-1.506,0.19-2.272c-0.208-0.557-0.622-1.075-1.255-1.582   c-1.244-1.049-2.903-1.639-4.509-2.211c-1.029-0.367-2.002-0.713-2.803-1.155c-0.859-0.576-1.165-1.226-0.909-1.929   c0.083-0.228,0.376-0.492,0.929-0.492c0.124,0,0.258,0.015,0.413,0.046c0.006,0.002,0.022,0.004,0.028,0.004   c0.101,0.022,0.203,0.037,0.313,0.043c0.095,0.01,0.188,0.014,0.277,0.014c1.523,0,2.435-1.168,2.435-2.295   c0-0.592-0.236-1.135-0.664-1.531c-0.321-0.297-0.91-0.65-1.89-0.65c-0.044,0-0.087,0.002-0.132,0.002   c-0.802,0.025-1.565,0.107-2.304,0.188c-0.824,0.088-1.603,0.172-2.376,0.172c-1.31,0-2.359-0.246-3.404-0.799   c-0.499-0.265-0.973-0.615-1.431-0.955l-0.235-0.176c-1.168-1.023-2.033-2.294-2.57-3.773c-0.303-0.832-1.408-3.575-1.408-3.575   c-0.813-2.804-1.226-5.548-0.563-8.218c0.805-3.235,2.479-7.396,3.701-10.437c0.349-0.864,0.649-1.611,0.876-2.204l0.056-0.146   c0.999-2.609,3.077-8.041,2.854-14.063c-0.002-0.062,0.003-0.121,0.012-0.181c0.004-0.024,0.01-0.049,0.015-0.072   c0.008-0.031,0.016-0.063,0.026-0.094c0.01-0.029,0.021-0.06,0.032-0.088c0.01-0.021,0.021-0.041,0.03-0.061   c0.017-0.032,0.033-0.064,0.053-0.094c0.173-0.26,0.46-0.437,0.795-0.448c0.557-0.026,1.016,0.409,1.036,0.962   c0.238,6.432-1.938,12.119-2.984,14.854l-0.056,0.146c-0.232,0.608-0.536,1.364-0.889,2.237c-1.2,2.983-2.845,7.07-3.615,10.172   c-0.736,2.963,0.073,6.166,1.721,10.697c0.405,1.112,1.019,2.014,1.729,2.723c0.103-0.092,0.207-0.186,0.307-0.275   c0.001-0.002,0.002-0.002,0.003-0.002c0.841-0.77,1.568-1.49,2.182-2.139c0.002-0.002,0.004-0.004,0.006-0.006   c0.147-0.156,0.287-0.307,0.421-0.453c0.011-0.012,0.021-0.023,0.031-0.033c0.127-0.141,0.249-0.277,0.364-0.408   c0.013-0.016,0.025-0.029,0.038-0.045c0.112-0.129,0.22-0.254,0.32-0.373c0.01-0.012,0.02-0.023,0.029-0.035   c0.103-0.123,0.199-0.24,0.289-0.354c0.009-0.01,0.019-0.025,0.027-0.037c2.973-3.498,5.381-7.41,7.203-11.727   c1.771-4.197,2.926-8.604,4.043-12.865c0.643-2.455,1.308-4.993,2.082-7.456c1.778-5.658,5.456-10.959,11.244-16.207   c1.27-1.152,2.604-2.257,3.896-3.324c0.313-0.259,0.627-0.52,0.941-0.781c0.016-0.013,0.03-0.025,0.046-0.038   c0.32-0.266,0.64-0.534,0.959-0.805c0.002-0.001,0.004-0.003,0.006-0.004c2.627-2.226,5.204-4.62,7.24-7.633   C158.965,95.849,162.454,90.582,161.731,88.11z M130.446,67.708c0.215-4.022,3.328-7.19,7.051-7.25c0.117,0,0.238,0,0.359,0.004   c3.832,0.149,6.777,3.552,6.641,7.634c-0.293,4.034-3.573,7.639-8.192,7.155C132.698,74.874,130.239,71.654,130.446,67.708z"
       id="path31" /></g></svg>