<?xml version="1.0" encoding="utf-8"?>
<!-- Generator: Adobe Illustrator 15.0.0, SVG Export Plug-In . SVG Version: 6.00 Build 0)  -->
<!DOCTYPE svg PUBLIC "-//W3C//DTD SVG 1.1//EN" "http://www.w3.org/Graphics/SVG/1.1/DTD/svg11.dtd">
<svg version="1.1" id="Layer_1" xmlns="http://www.w3.org/2000/svg" xmlns:xlink="http://www.w3.org/1999/xlink" x="0px" y="0px"
	 width="197.83px" height="272.439px" viewBox="0 0 197.83 272.439" enable-background="new 0 0 197.83 272.439"
	 xml:space="preserve">
<g id="rex_rana_v">
	<g>
		<path fill="#FFFFFF" d="M45.033,208.354c-0.04,0.28-0.04,0.521-0.04,0.721c0,0.52,0.04,0.96,0.08,1.399
			c1.64-2.279,3.279-2.561,5.479-2.561c0.399,0,0.8,0.041,1.199,0.121c-0.239,1.318-0.359,2.52-0.399,3.6
			c-0.52,0-0.92-0.041-1.2-0.041c-3.599,0-4.639,2-4.639,3.48c0,1.839,0.16,8.479,0.16,16.355c0,2.12,0.079,4.72,0.64,5.359
			c-0.92-0.16-2.08-0.24-3.199-0.24c-0.641,0-1.24,0.04-1.76,0.08c0.6-3.679,0.72-6.64,0.72-10.038c0-9.799-0.4-16.037-0.72-18.237
			L45.033,208.354L45.033,208.354z"/>
		<path fill="#FFFFFF" d="M67.336,226.111c0.52,0,1.12-0.039,1.72-0.118c-0.2,6.559-2.199,10.838-7.639,10.838
			c-7.559,0-9.318-8.479-9.318-13.998c0-8.679,1.199-15.077,8.759-15.077c1.64,0,3.479,0.239,4.959,1.64
			c2.199,2.119,2.479,5.839,2.479,8.918c0,1-0.04,2.08-0.04,3.4c-2.279,0.08-4.6,0.16-6.999,0.16c-1.76,0-3.56-0.041-5.479-0.16
			c-0.04,0.479-0.08,0.959-0.08,1.438c0,0.641,0.04,1.199,0.04,1.8c0,5.92,3.599,8.198,5.959,8.198c1.959,0,2.959-1.92,3.159-2.879
			c0.16-0.681,0.2-1.279,0.2-1.76c0-1-0.24-1.721-0.681-2.721C65.376,225.992,66.336,226.111,67.336,226.111z M60.977,210.994
			c-4.039,0-5.079,6.6-5.079,7.039c1.84,0.079,3.64,0.198,5.399,0.198c1.24,0,2.439-0.039,3.6-0.158
			C64.576,212.353,62.137,210.994,60.977,210.994z"/>
		<path fill="#FFFFFF" d="M85.654,209.234c-3.079,4.479-5.759,9.238-7.639,12.998c1.24,4.879,2.64,8.479,5.439,13.878
			c-1.439,0.399-2.92,0.721-4.359,1.119c-0.88-4.079-1.8-7.397-3.039-11.197c-1.48,4.239-2.32,8.078-2.76,11.679
			c-1.439-0.48-2.88-1.16-4.319-1.641c2.359-4.92,3.919-9.118,5.399-13.758c-1.2-4.318-2.16-6.999-4.96-13.438
			c1.521-0.4,3.12-0.681,4.64-1.08c0.28,2.358,1.16,6.719,2.479,10.998c1.96-3.561,3.52-7.238,4.68-10.918L85.654,209.234z"/>
		<path fill="#FFFFFF" d="M98.296,208.354c-0.04,0.28-0.04,0.521-0.04,0.721c0,0.52,0.04,0.96,0.08,1.399
			c1.64-2.279,3.279-2.561,5.479-2.561c0.398,0,0.8,0.041,1.199,0.121c-0.24,1.318-0.359,2.52-0.399,3.6
			c-0.521,0-0.921-0.041-1.2-0.041c-3.6,0-4.639,2-4.639,3.48c0,1.839,0.16,8.479,0.16,16.355c0,2.12,0.079,4.72,0.64,5.359
			c-0.92-0.16-2.08-0.24-3.199-0.24c-0.641,0-1.24,0.04-1.76,0.08c0.6-3.679,0.72-6.64,0.72-10.038c0-9.799-0.4-16.037-0.72-18.237
			L98.296,208.354L98.296,208.354z"/>
		<path fill="#FFFFFF" d="M117.538,237.109c-0.199-0.398-0.398-1.238-0.479-1.759c-0.601,0.72-1.961,1.68-4.479,1.68
			c-4.319,0-7.158-4.119-7.158-9.519c0-6.68,3.119-9.998,7.278-9.998c2.479,0,3.72,0.84,4.52,1.639c0.04-0.84,0.04-1.52,0.04-2.278
			c0-3.761-1.56-5.839-3.56-5.839c-1.561,0-3.879,0.56-3.879,4.759c-0.84-0.16-1.641-0.24-2.521-0.24c-0.398,0-0.8,0-1.238,0.041
			c1.08-6.479,3.959-7.959,7.719-7.959c1.92,0,3.64,0.72,4.839,1.959c1.521,1.601,1.8,4.72,1.8,7.92c0,4.279-0.12,9.598-0.12,13.637
			c0,2.721,0.44,4.12,1.44,5.479C120.218,236.629,119.06,236.709,117.538,237.109z M116.659,228.63c0-1.319,0.039-2.76,0.158-4.439
			c0-1.719-1.52-3.157-3.438-3.157c-3.56,0-3.999,4.438-3.999,5.719c0,2.959,1,6.479,3.959,6.479c1.4,0,2.88-0.479,3.359-1.08
			C116.659,230.99,116.659,229.951,116.659,228.63z"/>
		<path fill="#FFFFFF" d="M126.983,215.433c-0.199,3.199-0.279,7.679-0.279,12.238c0,3.199,0.04,6.438,0.12,9.278
			c-0.601-0.04-1.2-0.08-1.841-0.08c-0.601,0-1.199,0.04-1.799,0.08c0.64-5.399,0.84-10.84,0.84-16.519
			c0-3.919-0.08-7.958-0.16-12.118c0.8,0.08,1.56,0.08,2.359,0.08c0.76,0,1.521,0,2.279-0.08c2.039,6.919,4.919,15.277,6.68,17.838
			c0-2.96,0.039-5.92,0.039-8.879c0-3-0.08-6-0.279-9.039c0.8,0.08,1.68,0.12,2.56,0.12c0.601,0,1.24-0.04,1.84-0.08
			c-0.68,1.801-1.28,12.878-1.28,21.356c0,2.8,0.041,5.358,0.201,7.159c-1.08,0.04-2.199,0.08-3.359,0.278
			C133.144,230.55,128.703,219.352,126.983,215.433z"/>
		<path fill="#FFFFFF" d="M152.878,237.109c-0.199-0.398-0.398-1.238-0.479-1.759c-0.601,0.72-1.961,1.68-4.479,1.68
			c-4.319,0-7.157-4.119-7.157-9.519c0-6.68,3.118-9.998,7.277-9.998c2.479,0,3.72,0.84,4.52,1.639
			c0.041-0.84,0.041-1.52,0.041-2.278c0-3.761-1.561-5.839-3.561-5.839c-1.561,0-3.879,0.56-3.879,4.759
			c-0.84-0.16-1.641-0.24-2.521-0.24c-0.398,0-0.8,0-1.238,0.041c1.08-6.479,3.959-7.959,7.719-7.959c1.92,0,3.64,0.72,4.839,1.959
			c1.521,1.601,1.8,4.72,1.8,7.92c0,4.279-0.119,9.598-0.119,13.637c0,2.721,0.439,4.12,1.439,5.479
			C155.558,236.629,154.397,236.709,152.878,237.109z M151.999,228.63c0-1.319,0.039-2.76,0.159-4.439
			c0-1.719-1.521-3.157-3.439-3.157c-3.559,0-3.999,4.438-3.999,5.719c0,2.959,1,6.479,3.959,6.479c1.4,0,2.881-0.479,3.359-1.08
			C151.999,230.99,151.999,229.951,151.999,228.63z"/>
	</g>
</g>
<g id="solid_black">
	<path fill="#FFFFFF" d="M146.429,148.641c-1.313-1.026-2.959-1.344-4.439-0.875c-2.032,0.646-2.331-0.186-1.049-0.904
		c0.357-0.2,3.395-0.819,2.494-3.696c-0.271-0.857-2.604-2.771-4.738-0.822c-2.37,2.164-3.674,2.947-5.581,2.84
		c-0.679-0.039-1.623-0.635-2.556-1.387c-0.025-0.021-0.047-0.039-0.069-0.06c-0.231,0.611-0.474,1.222-0.729,1.824
		c-0.975,2.31-2.119,4.51-3.424,6.604c0.012,0.008,0.021,0.016,0.033,0.022c0.71,0.543,1.339,0.965,1.852,1.283
		c1.188,0.736-1.055,2.42-1.072,4.113c-0.017,1.692,1.418,2.344,2.021,2.414c0.604,0.069,2.514-0.799,2.859-1.873
		c0.5-1.551-0.244-3.017,0.887-3.73c1.922-1.211,5.014,1.75,6.068,3.621c1.056,1.873,2.598,2.019,3.688,1.765
		c1.088-0.255,1.922-1.699,1.778-2.677c-0.144-0.979-0.479-2.457-2.438-3.244c-1.693-0.682-0.881-1.922,0.211-1.295
		c0.801,0.459,1.955,0.896,3.426,0.658c0.67-0.108,1.541-0.733,1.824-1.945C147.706,150.276,147.422,149.422,146.429,148.641z"/>
	<g>
		<g>
			<path fill="#FFFFFF" d="M139.228,64.52c-0.652,0.004-1.313,0.119-1.931,0.295c-1.565,0.463-2.469,1.152-3.388,2.48
				c-0.418,0.617-1.141,1.962-0.715,2.66c0.502,0.789,1.457,1.031,2.369,1.027c2.385,0.095,4.586-1.02,5.709-2.87
				c0.41-0.736,0.756-1.609,0.519-2.473c-0.101-0.324-0.339-0.606-0.647-0.757C140.534,64.619,139.882,64.515,139.228,64.52
				L139.228,64.52z"/>
		</g>
	</g>
	<path fill="#FFFFFF" d="M153.692,38.836c-0.793-1.756-3.446-2.388-5.645-1.556c-3.617,1.37-7.689,10.588-10.934,11.197
		c-1.33,0.25-2.992-0.808-2.868-5.009c0.124-4.2-1.935-7.422-3.945-7.26c-2.011,0.161-3.8,0.41-3.704,8.238
		s-4.447,3.699-6.699,1.503c-2.252-2.197-3.744-6.048-3.744-6.048s-0.641-1.391-1.082-1.734c-0.785-0.612-1.762-1.078-2.891-1.078
		c-2.258,0-4.087,1.646-4.087,3.679c0,0.721,0.382,1.402,0.83,2.015c0.942,1.283,3.043,2.079,4.104,3.614
		c2.768,4.002,3.824,7.668,5.089,13.605c0.37,1.739,0.548,3.199,0.608,4.41c0.127,0.044,0.246,0.082,0.297,0.096
		c0.563,0.106,3.026,0.556,5.779,0.778c1.1-5.873,6.2-10.33,12.313-10.33c2.107,0,4.096,0.532,5.841,1.469
		c0.696-4.24,3.979-9.63,5.825-11.555C151.001,42.554,154.674,41.01,153.692,38.836z"/>
	<path fill="#FFFFFF" d="M161.731,88.11c-0.075,0.043-0.146,0.083-0.205,0.118c-3.024,1.814-9.457,4.426-12.998,5.276
		c-3.358,0.808-6.096,1.048-8.293,1.241c-0.303,0.025-0.596,0.052-0.877,0.078c-0.53,0.05-1.084,0.069-1.64,0.069
		c-3.182,0-6.491-0.688-6.655-0.724c-0.864-0.184-1.418-1.032-1.234-1.896c0.184-0.863,1.031-1.417,1.896-1.234
		c0.041,0.009,4.258,0.886,7.338,0.599c0.285-0.026,0.584-0.053,0.893-0.079c2.094-0.185,4.697-0.413,7.824-1.165
		c3.244-0.778,9.355-3.26,12.111-4.915c0.008-0.005,0.016-0.01,0.022-0.015c0.491-0.283,0.989-0.571,1.487-0.86
		c0.048-2.996-2.658-6.634-5.066-9.269c-2.15-2.354-4.715-4.479-7.592-6.318c-0.121-0.271-0.221-0.546-0.301-0.817
		c0.002-0.098,0.006-0.193,0.006-0.291c0-0.938-0.114-1.846-0.325-2.716c0-0.001,0-0.004,0-0.004h-0.001
		c-1.199-4.928-5.582-8.582-10.807-8.582c-5.86,0-10.66,4.598-11.099,10.431c-0.034,0.001-0.067,0.003-0.103,0.004l0.018-0.023
		c-3.152-0.165-5.305-0.513-7.188-0.886l-0.689-0.221c-4.898,2.268-8.967,5.528-11.984,8.472c-0.012,0.011-0.021,0.021-0.033,0.034
		c-1.315,1.471-2.598,3.015-3.838,4.509c-2.891,3.483-5.878,7.086-9.477,9.927c-2.815,2.224-5.907,4.224-8.95,6.146
		c-0.404,0.256-0.808,0.51-1.21,0.763c-0.256,0.162-0.514,0.324-0.771,0.486c-2.538,1.601-5.132,3.258-7.575,5.041
		c-10.701,7.814-19.491,17.142-26.87,28.515c-2.818,4.342-6.688,10.919-9.124,17.595c-2.759,7.562-3.165,13.742-1.207,18.377
		c1.446,3.422,4.229,5.83,8.159,7.591c-0.609-1.058-1.017-2.21-1.104-3.438c-0.31-4.32,2.199-9.098,4.65-12.129
		c4.985-6.16,14.421-10.631,21.563-12.328c0.59-0.141,1.184,0.225,1.324,0.814c0.141,0.592-0.225,1.186-0.815,1.325
		c-6.778,1.611-15.702,5.814-20.361,11.572c-2.087,2.58-4.431,6.9-4.166,10.586c0.232,3.236,3.823,6.344,7.083,7.623
		c0.604,0.238,1.741,0.617,1.752,0.621c1.001,0.35,1.994,0.691,2.985,1.031c1.938,0.625,3.999,1.223,6.117,1.84
		c5.251,1.529,10.687,2.402,14.578,3.514c6.5,1.857,5.313,4.246,7.416,5.345c0.64,0.334,3.653,0.879,3.602-2.419
		c-0.028-1.817-1.543-4.534-4.93-5.243c-4.337-0.908-5.824-3.193-0.895-1.541c4.815,1.612,6.481,4.467,9.007,4.828
		c1.504,0.217,2.583-0.703,2.136-3.287c-0.447-2.584-7.302-4.152-10.476-4.677c-1.926-0.317-0.667-2.465,4.744-1.239
		c2.927,1.133,5.168,1.412,5.996,0.746c0.396-0.316,0.521-0.978,0.37-1.959c-0.017-0.111-0.038-0.216-0.061-0.313l0,0
		c0,0-0.006-0.031-0.022-0.084c-0.185-0.695-0.51-0.99-0.755-1.154c-0.178-0.119-0.388-0.207-0.621-0.276
		c-0.752-0.343-1.902-0.533-3.656-0.256c-4.604,0.729-6.133-0.207-5.896-1.029c0.435-1.506,2.646-0.834,3.574-1.705
		c0.004-0.004,0.008-0.008,0.012-0.012c0.237-0.183,0.425-0.42,0.521-0.736c0.243-0.801-0.162-1.883-0.884-2.363
		c-0.418-0.278-1.925-0.631-7.194,1.301c-0.417,0.158-2.09,0.916-2.479,1.076c-0.666,0.273-1.396,0.625-2.171,0.998
		c-2.55,1.23-4.959,2.392-6.526,1.533c-0.849-0.467-1.037-1.143-1.073-1.504c-0.118-1.172,0.92-2.197,1.711-2.867
		c0.009-0.008,0.349-0.289,0.467-0.381c0.961-0.752,1.997-1.422,2.999-2.068c0.683-0.44,1.327-0.856,1.953-1.299
		c5.873-4.149,9.95-8.748,12.117-13.664c2.52-5.715,0.831-9.983-1.03-12.56c-3.294-4.561-9.667-7.224-15.861-6.629
		c-12.063,1.156-18.918,8.3-24.53,15.847c-0.362,0.488-1.052,0.59-1.539,0.228c-0.487-0.361-0.589-1.052-0.226-1.539
		c5.914-7.953,13.168-15.484,26.085-16.725c6.945-0.667,14.119,2.359,17.854,7.53c3.106,4.299,3.553,9.531,1.259,14.734
		c-2.33,5.286-6.657,10.188-12.86,14.573c-0.663,0.468-1.357,0.916-2.029,1.351c-0.96,0.621-1.954,1.262-2.837,1.953
		c-0.105,0.082-0.409,0.334-0.41,0.336c-0.434,0.366-0.668,0.629-0.794,0.799c0.838,0.041,3.151-1.068,4.315-1.629
		c0.427-0.207,1.911-0.812,3.343-1.371c0.529-0.209,1.037-0.404,1.525-0.584c0.531-0.197,0.977-0.357,1.25-0.443
		c0.001,0,0.002,0,0.003,0c3.994-1.354,6.454-1.549,7.786-0.66c1.463,0.976,2.189,2.955,1.688,4.607
		c-0.099,0.326-0.309,0.826-0.744,1.307c2.326-0.438,4.52-0.528,6.008,0.47c0.313,0.209,0.581,0.463,0.813,0.752
		c2.27-0.773,4.457-1.65,6.552-2.625c0,0,0.002-0.002,0.003-0.002c0,0,0.001,0,0.002,0c0.217-0.103,0.436-0.203,0.65-0.306
		c0.396-0.19,0.791-0.387,1.182-0.584c0.124-0.063,0.245-0.129,0.369-0.19c-3.839-4.052-5.229-5.752-8.873-13.769
		c-3.106-6.836-3.425-13.979-0.975-21.848c4.478-14.375,11.059-21.606,11.336-21.907c0.375-0.406,1.008-0.432,1.412-0.057
		c0.367,0.338,0.42,0.884,0.152,1.285c-0.029,0.044-0.059,0.088-0.096,0.127c-0.064,0.07-6.564,7.236-10.896,21.146
		c-2.298,7.375-2.008,14.057,0.887,20.424c2.438,5.367,2.979,6.476,3.386,7.035c0.004,0.101,3.064,4.316,5.691,7.08
		c0.365,0.383,0.752,0.791,1.164,1.228c1.865,1.973,2.652,5.165,3.226,8.325c0.144,1.009,0.372,2.521,0.707,4.041
		c0.165,0.853,0.319,1.502,0.485,2.047c0.156,0.513,0.347,1.009,0.563,1.478c0.001,0.002,0.003,0.006,0.003,0.008
		c0.835,1.988,2.042,3.131,3.313,3.131c0.349,0,0.684-0.088,0.996-0.258c0.473-0.258,0.83-0.604,1.063-1.029
		c0.251-0.381,0.298-0.696,0.316-0.817c0.034-0.236,0.03-0.484-0.013-0.761c-0.103-1.426-1.011-3.059-1.742-4.372
		c-0.092-0.169-0.184-0.332-0.271-0.49c-0.688-1.26-0.633-2.217-0.351-2.691c0.102-0.172,0.289-0.379,0.607-0.379
		c0.412,0,0.895,0.334,1.319,0.912c0.328,0.447,0.649,0.996,0.991,1.578c1.059,1.805,2.259,3.85,4.433,4.258
		c0.247,0.045,0.479,0.068,0.69,0.068c0.001,0,0.001,0,0.001,0c0.786,0,1.213-0.328,1.432-0.604c0.373-0.473,0.46-1.158,0.261-2.037
		c-0.017-0.151-0.058-0.303-0.125-0.459c-0.347-1.092-1.011-2.196-1.457-2.641c-0.024-0.023-0.066-0.064-0.123-0.119
		c-3.506-3.385-4.279-5.021-4.184-5.455c0.003-0.018,0.01-0.047,0.118-0.086c0.241-0.082,0.494-0.125,0.75-0.125
		c1.717,0,3.5,1.83,4.802,3.166c0.241,0.246,0.467,0.477,0.672,0.678c0.754,0.732,1.944,1.683,3.342,2.054
		c0.166,0.051,0.33,0.086,0.485,0.104c0.104,0.018,0.212,0.031,0.318,0.039c0.081,0.008,0.159,0.01,0.237,0.01
		c0.782,0,1.463-0.346,1.869-0.949c0.437-0.647,0.504-1.506,0.189-2.272c-0.208-0.557-0.622-1.076-1.256-1.582
		c-1.243-1.049-2.902-1.639-4.508-2.211c-1.029-0.367-2.002-0.713-2.804-1.156c-0.858-0.576-1.165-1.225-0.909-1.928
		c0.084-0.228,0.377-0.492,0.93-0.492c0.123,0,0.258,0.014,0.412,0.045c0.007,0.002,0.022,0.004,0.029,0.004
		c0.1,0.023,0.202,0.037,0.313,0.043c0.095,0.01,0.188,0.015,0.277,0.015c1.522,0,2.435-1.168,2.435-2.296
		c0-0.592-0.235-1.135-0.664-1.53c-0.321-0.297-0.91-0.65-1.89-0.65c-0.045,0-0.088,0.002-0.133,0.002
		c-0.802,0.025-1.564,0.107-2.304,0.188c-0.823,0.088-1.603,0.172-2.376,0.172c-1.311,0-2.359-0.246-3.404-0.799
		c-0.498-0.265-0.973-0.615-1.431-0.955l-0.235-0.176c-1.168-1.023-2.033-2.294-2.569-3.773c-0.304-0.832-1.408-3.576-1.408-3.576
		c-0.813-2.803-1.226-5.547-0.563-8.217c0.806-3.236,2.479-7.396,3.701-10.437c0.35-0.864,0.649-1.611,0.877-2.204l0.055-0.146
		c1-2.609,3.078-8.04,2.854-14.063c-0.002-0.063,0.003-0.121,0.013-0.182c0.004-0.023,0.01-0.048,0.015-0.071
		c0.008-0.031,0.016-0.063,0.026-0.095c0.01-0.028,0.021-0.059,0.031-0.087c0.01-0.021,0.021-0.041,0.03-0.061
		c0.017-0.032,0.032-0.064,0.053-0.095c0.173-0.259,0.46-0.436,0.796-0.447c0.557-0.026,1.016,0.409,1.035,0.962
		c0.238,6.432-1.938,12.119-2.984,14.853l-0.056,0.146c-0.231,0.608-0.536,1.363-0.889,2.237c-1.2,2.983-2.845,7.069-3.615,10.172
		c-0.735,2.963,0.073,6.166,1.722,10.696c0.404,1.113,1.019,2.015,1.729,2.724c0.104-0.093,0.207-0.187,0.307-0.275
		c0.002-0.002,0.002-0.002,0.004-0.002c0.84-0.77,1.567-1.49,2.182-2.139c0.002-0.002,0.004-0.004,0.006-0.006
		c0.146-0.156,0.287-0.308,0.421-0.453c0.011-0.013,0.021-0.023,0.03-0.033c0.127-0.142,0.25-0.277,0.365-0.408
		c0.012-0.016,0.024-0.029,0.037-0.045c0.112-0.129,0.221-0.254,0.32-0.373c0.01-0.012,0.02-0.023,0.029-0.035
		c0.103-0.123,0.199-0.24,0.289-0.354c0.009-0.011,0.019-0.025,0.027-0.037c2.973-3.498,5.381-7.41,7.202-11.728
		c1.771-4.196,2.927-8.604,4.043-12.864c0.644-2.455,1.308-4.993,2.082-7.456c1.778-5.658,5.456-10.959,11.244-16.207
		c1.271-1.152,2.604-2.258,3.896-3.324c0.313-0.259,0.627-0.521,0.941-0.781c0.016-0.013,0.03-0.024,0.046-0.038
		c0.32-0.266,0.64-0.534,0.959-0.805c0.002-0.001,0.005-0.003,0.007-0.004c2.627-2.227,5.203-4.62,7.239-7.633
		C158.965,95.849,162.454,90.582,161.731,88.11z M130.446,67.708c0.215-4.022,3.328-7.19,7.051-7.25c0.117,0,0.238,0,0.359,0.004
		c3.832,0.148,6.776,3.552,6.641,7.634c-0.293,4.034-3.573,7.639-8.191,7.155C132.698,74.874,130.239,71.654,130.446,67.708z"/>
</g>
</svg>
