<?xml version="1.0" encoding="utf-8"?>
<!-- Generator: Adobe Illustrator 15.0.0, SVG Export Plug-In . SVG Version: 6.00 Build 0)  -->
<!DOCTYPE svg PUBLIC "-//W3C//DTD SVG 1.1//EN" "http://www.w3.org/Graphics/SVG/1.1/DTD/svg11.dtd">
<svg version="1.1" id="Layer_1" xmlns="http://www.w3.org/2000/svg" xmlns:xlink="http://www.w3.org/1999/xlink" x="0px" y="0px"
	 width="197.83px" height="272.439px" viewBox="0 0 197.83 272.439" enable-background="new 0 0 197.83 272.439"
	 xml:space="preserve">
<g id="rex_rana_v">
	<g>
		<path fill="#FFFFFF" d="M45.033,208.354c-0.04,0.28-0.04,0.521-0.04,0.721c0,0.52,0.04,0.96,0.08,1.399
			c1.64-2.279,3.279-2.561,5.479-2.561c0.399,0,0.8,0.041,1.199,0.121c-0.239,1.318-0.359,2.52-0.399,3.6
			c-0.52,0-0.92-0.041-1.2-0.041c-3.599,0-4.639,2-4.639,3.48c0,1.839,0.16,8.479,0.16,16.355c0,2.12,0.079,4.72,0.64,5.359
			c-0.92-0.16-2.08-0.24-3.199-0.24c-0.641,0-1.24,0.04-1.76,0.08c0.6-3.679,0.72-6.64,0.72-10.038c0-9.799-0.4-16.037-0.72-18.237
			L45.033,208.354L45.033,208.354z"/>
		<path fill="#FFFFFF" d="M67.336,226.111c0.52,0,1.12-0.039,1.72-0.118c-0.2,6.559-2.199,10.838-7.639,10.838
			c-7.559,0-9.318-8.479-9.318-13.998c0-8.679,1.199-15.077,8.759-15.077c1.64,0,3.479,0.239,4.959,1.64
			c2.199,2.119,2.479,5.839,2.479,8.918c0,1-0.04,2.08-0.04,3.4c-2.279,0.08-4.6,0.16-6.999,0.16c-1.76,0-3.56-0.041-5.479-0.16
			c-0.04,0.479-0.08,0.959-0.08,1.438c0,0.641,0.04,1.199,0.04,1.8c0,5.92,3.599,8.198,5.959,8.198c1.959,0,2.959-1.92,3.159-2.879
			c0.16-0.681,0.2-1.279,0.2-1.76c0-1-0.24-1.721-0.681-2.721C65.376,225.992,66.336,226.111,67.336,226.111z M60.977,210.994
			c-4.039,0-5.079,6.6-5.079,7.039c1.84,0.079,3.64,0.198,5.399,0.198c1.24,0,2.439-0.039,3.6-0.158
			C64.576,212.353,62.137,210.994,60.977,210.994z"/>
		<path fill="#FFFFFF" d="M85.654,209.234c-3.079,4.479-5.759,9.238-7.639,12.998c1.24,4.879,2.64,8.479,5.439,13.878
			c-1.439,0.399-2.92,0.721-4.359,1.119c-0.88-4.079-1.8-7.397-3.039-11.197c-1.48,4.239-2.32,8.078-2.76,11.679
			c-1.439-0.48-2.88-1.16-4.319-1.641c2.359-4.92,3.919-9.118,5.399-13.758c-1.2-4.318-2.16-6.999-4.96-13.438
			c1.521-0.4,3.12-0.681,4.64-1.08c0.28,2.358,1.16,6.719,2.479,10.998c1.96-3.561,3.52-7.238,4.68-10.918L85.654,209.234z"/>
		<path fill="#FFFFFF" d="M98.296,208.354c-0.04,0.28-0.04,0.521-0.04,0.721c0,0.52,0.04,0.96,0.08,1.399
			c1.64-2.279,3.279-2.561,5.479-2.561c0.398,0,0.8,0.041,1.199,0.121c-0.24,1.318-0.359,2.52-0.399,3.6
			c-0.521,0-0.921-0.041-1.2-0.041c-3.6,0-4.639,2-4.639,3.48c0,1.839,0.16,8.479,0.16,16.355c0,2.12,0.079,4.72,0.64,5.359
			c-0.92-0.16-2.08-0.24-3.199-0.24c-0.641,0-1.24,0.04-1.76,0.08c0.6-3.679,0.72-6.64,0.72-10.038c0-9.799-0.4-16.037-0.72-18.237
			L98.296,208.354L98.296,208.354z"/>
		<path fill="#FFFFFF" d="M117.538,237.109c-0.199-0.398-0.398-1.238-0.479-1.759c-0.601,0.72-1.961,1.68-4.479,1.68
			c-4.319,0-7.158-4.119-7.158-9.519c0-6.68,3.119-9.998,7.278-9.998c2.479,0,3.72,0.84,4.52,1.639c0.04-0.84,0.04-1.52,0.04-2.278
			c0-3.761-1.56-5.839-3.56-5.839c-1.561,0-3.879,0.56-3.879,4.759c-0.84-0.16-1.641-0.24-2.521-0.24c-0.398,0-0.8,0-1.238,0.041
			c1.08-6.479,3.959-7.959,7.719-7.959c1.92,0,3.64,0.72,4.839,1.959c1.521,1.601,1.8,4.72,1.8,7.92c0,4.279-0.12,9.598-0.12,13.637
			c0,2.721,0.44,4.12,1.44,5.479C120.218,236.629,119.06,236.709,117.538,237.109z M116.659,228.63c0-1.319,0.039-2.76,0.158-4.439
			c0-1.719-1.52-3.157-3.438-3.157c-3.56,0-3.999,4.438-3.999,5.719c0,2.959,1,6.479,3.959,6.479c1.4,0,2.88-0.479,3.359-1.08
			C116.659,230.99,116.659,229.951,116.659,228.63z"/>
		<path fill="#FFFFFF" d="M126.983,215.433c-0.199,3.199-0.279,7.679-0.279,12.238c0,3.199,0.04,6.438,0.12,9.278
			c-0.601-0.04-1.2-0.08-1.841-0.08c-0.601,0-1.199,0.04-1.799,0.08c0.64-5.399,0.84-10.84,0.84-16.519
			c0-3.919-0.08-7.958-0.16-12.118c0.8,0.08,1.56,0.08,2.359,0.08c0.76,0,1.521,0,2.279-0.08c2.039,6.919,4.919,15.277,6.68,17.838
			c0-2.96,0.039-5.92,0.039-8.879c0-3-0.08-6-0.279-9.039c0.8,0.08,1.68,0.12,2.56,0.12c0.601,0,1.24-0.04,1.84-0.08
			c-0.68,1.801-1.28,12.878-1.28,21.356c0,2.8,0.041,5.358,0.201,7.159c-1.08,0.04-2.199,0.08-3.359,0.278
			C133.144,230.55,128.703,219.352,126.983,215.433z"/>
		<path fill="#FFFFFF" d="M152.878,237.109c-0.199-0.398-0.398-1.238-0.479-1.759c-0.601,0.72-1.961,1.68-4.479,1.68
			c-4.319,0-7.157-4.119-7.157-9.519c0-6.68,3.118-9.998,7.277-9.998c2.479,0,3.72,0.84,4.52,1.639
			c0.041-0.84,0.041-1.52,0.041-2.278c0-3.761-1.561-5.839-3.561-5.839c-1.561,0-3.879,0.56-3.879,4.759
			c-0.84-0.16-1.641-0.24-2.521-0.24c-0.398,0-0.8,0-1.238,0.041c1.08-6.479,3.959-7.959,7.719-7.959c1.92,0,3.64,0.72,4.839,1.959
			c1.521,1.601,1.8,4.72,1.8,7.92c0,4.279-0.119,9.598-0.119,13.637c0,2.721,0.439,4.12,1.439,5.479
			C155.558,236.629,154.397,236.709,152.878,237.109z M151.999,228.63c0-1.319,0.039-2.76,0.159-4.439
			c0-1.719-1.521-3.157-3.439-3.157c-3.559,0-3.999,4.438-3.999,5.719c0,2.959,1,6.479,3.959,6.479c1.4,0,2.881-0.479,3.359-1.08
			C151.999,230.99,151.999,229.951,151.999,228.63z"/>
	</g>
</g>
<g id="outline_path">
	<g>
		<path fill="#FFFFFF" d="M139.228,64.52c-0.652,0.004-1.313,0.119-1.931,0.295c-1.565,0.463-2.469,1.152-3.388,2.48
			c-0.418,0.617-1.141,1.962-0.715,2.66c0.502,0.789,1.457,1.031,2.369,1.027c2.385,0.095,4.586-1.02,5.709-2.87
			c0.41-0.736,0.756-1.609,0.519-2.473c-0.101-0.324-0.339-0.606-0.647-0.757C140.534,64.619,139.882,64.515,139.228,64.52
			L139.228,64.52z"/>
	</g>
	<path fill="#FFFFFF" d="M162.833,87.107c-0.087-0.163-0.189-0.313-0.305-0.457c0.002-0.1-0.006-0.199-0.021-0.3
		c0.063-0.186,0.118-0.374,0.161-0.567c0.659-2.988-1.124-6.821-5.301-11.393c-2.139-2.339-4.669-4.463-7.523-6.327
		c0-0.053,0.004-0.104,0.004-0.155c0-4.316-2.139-8.135-5.396-10.431c0.389-3.851,3.733-9.505,5.538-11.389
		c0.615-0.645,1.394-1.249,2.146-1.834c1.854-1.444,4.161-3.241,3.029-5.747c-1.084-2.399-4.41-3.426-7.415-2.287
		c-2.166,0.82-4.099,3.449-6.146,6.233c-1.453,1.979-3.444,4.688-4.551,4.896c-0.17,0.031-0.305-0.006-0.439-0.123
		c-0.2-0.171-0.846-0.925-0.771-3.468c0.09-3.076-0.882-5.965-2.537-7.538c-0.884-0.841-1.893-1.24-2.92-1.159
		c-1.045,0.085-2.625,0.212-3.705,1.879c-0.938,1.449-1.334,3.848-1.287,7.772c0.033,2.712-0.533,3.152-0.531,3.152
		c-0.137,0.038-0.959,0.094-3.789-2.669c-1.842-1.796-3.174-4.948-3.387-5.476c-0.25-0.884-0.754-1.691-1.481-2.346
		c-1.028-0.927-2.39-1.438-3.827-1.438c-3.025,0-5.486,2.278-5.486,5.079c0,1.94,1.567,3.673,2.967,4.468
		c0.617,0.44,1.601,1.13,2.64,2.619c0.565,0.911,1.058,1.819,1.493,2.747c0.109,0.255,0.215,0.487,0.314,0.698
		c1.139,2.616,1.883,5.438,2.641,8.993c0.318,1.5,0.513,2.896,0.578,4.163c-4.256,1.989-8.367,4.903-12.229,8.668
		c-0.035,0.035-0.07,0.07-0.104,0.106c-1.334,1.489-2.623,3.044-3.873,4.549c-2.844,3.429-5.785,6.974-9.266,9.723
		c-3.13,2.471-6.641,4.683-10.039,6.824c-2.8,1.764-5.696,3.588-8.425,5.58c-10.842,7.916-19.745,17.364-27.219,28.883
		c-2.857,4.402-6.784,11.078-9.265,17.877c-2.884,7.903-3.281,14.432-1.181,19.401c1.814,4.295,5.437,7.354,10.761,9.103
		c1.201,1.076,2.788,1.961,4.756,2.643c0.526,0.185,1.076,0.375,1.645,0.574c3.145,1.098,7.058,2.465,10.921,3.59
		c2.92,0.853,5.937,1.51,8.598,2.092c2.195,0.48,4.268,0.935,5.987,1.425c3.917,1.118,4.888,2.342,5.746,3.42
		c0.515,0.647,1.047,1.317,2.006,1.817c0.367,0.193,1.122,0.41,1.975,0.41c0.711,0,1.492-0.15,2.171-0.598
		c0.765-0.5,1.646-1.527,1.5-3.57c-0.019-0.26-0.051-0.51-0.095-0.748c0.323,0.123,0.681,0.219,1.083,0.277
		c1.156,0.166,2.18-0.142,2.882-0.865c0.864-0.889,1.144-2.25,0.832-4.047c-0.145-0.84-0.612-1.545-1.337-2.162
		c0.261-0.037,0.517-0.111,0.763-0.221c0.828-0.369,2.216-1.466,2.216-4.66c0-0.435-0.061-0.838-0.174-1.217
		c2.321-0.818,4.565-1.742,6.688-2.761c0.17-0.082,0.34-0.166,0.51-0.25v-0.004c0.348-0.172,0.688-0.346,1.027-0.518
		c0.516,0.557,0.912,0.979,1.053,1.129c1.431,1.512,2.096,4.285,2.601,7.061c0.043,0.31,0.077,0.693,0.112,1.103
		c0.078,0.867,0.175,1.945,0.414,3.043c0.18,0.922,0.352,1.641,0.541,2.262c0.184,0.599,0.404,1.185,0.658,1.738
		c1.229,2.908,3.236,4.574,5.516,4.574c0.755,0,1.477-0.185,2.146-0.552c0.852-0.463,1.514-1.102,1.971-1.896
		c0.496-0.789,0.599-1.475,0.633-1.701c0.035-0.242,0.054-0.486,0.051-0.736c0.617,0.365,1.314,0.646,2.109,0.793
		c0.393,0.074,0.773,0.111,1.135,0.111c1.363,0,2.541-0.539,3.314-1.516c0.567-0.722,1.153-1.984,0.742-3.939
		c-0.027-0.19-0.072-0.383-0.131-0.569c0.292,0.116,0.594,0.221,0.906,0.305c0.27,0.08,0.542,0.139,0.808,0.172
		c0.153,0.023,0.302,0.041,0.45,0.055c0.146,0.013,0.294,0.019,0.438,0.019c1.598,0,3.004-0.732,3.861-2.013
		c0.876-1.303,1.037-2.979,0.434-4.485c-0.363-0.951-1.008-1.791-1.967-2.563c-1.43-1.194-3.097-1.852-4.738-2.44
		c1.15-0.91,1.789-2.31,1.789-3.681c0-1.27-0.51-2.438-1.438-3.295c-0.636-0.586-1.762-1.287-3.518-1.287
		c-0.071,0-0.146,0.002-0.205,0.004c-0.889,0.027-1.699,0.115-2.487,0.199c-0.758,0.082-1.474,0.158-2.118,0.158
		c-1.035,0-1.8-0.063-2.412-0.389c-0.117-0.062-0.244-0.142-0.373-0.228c1.992-1.871,3.799-3.891,5.416-6.049c0,0,0,0,0,0.002
		c0.512-0.684,1.002-1.383,1.477-2.094c0.471,0.359,0.945,0.697,1.416,1.006c-0.074,0.135-0.158,0.277-0.227,0.393
		c-0.447,0.767-1.006,1.72-1.017,2.83c-0.024,2.369,1.892,3.658,3.258,3.818c1.249,0.148,3.802-1.117,4.354-2.834
		c0.266-0.826,0.268-1.586,0.27-2.199c0.001-0.258,0.002-0.639,0.043-0.783c0.059-0.034,0.205-0.104,0.557-0.018
		c1.174,0.297,2.834,1.908,3.535,3.148c0.978,1.735,2.553,2.653,4.325,2.567c0.294-0.016,0.595-0.057,0.896-0.129
		c1.891-0.438,3.082-2.641,2.848-4.242c-0.063-0.424-0.191-1.311-0.732-2.217c0.256-0.014,0.513-0.037,0.771-0.08
		c1.169-0.188,2.539-1.19,2.963-3.008c0.256-1.098,0.196-2.691-1.544-4.057c-0.878-0.688-1.891-1.127-2.932-1.302
		c0.869-1.223,0.69-2.592,0.41-3.491c-0.332-1.062-1.604-2.138-2.959-2.503c-1.441-0.389-2.883-0.012-4.061,1.064
		c-2.211,2.021-3.189,2.551-4.555,2.475c-0.021-0.002-0.492-0.057-1.754-1.073c-0.172-0.142-0.317-0.269-0.44-0.384
		c0.022-0.065,0.048-0.133,0.071-0.2c0.01-0.027,0.021-0.058,0.029-0.086c0.129-0.375,0.256-0.75,0.379-1.125l0,0
		c0.918-2.808,1.66-5.638,2.387-8.408c0.639-2.438,1.299-4.96,2.063-7.392c1.702-5.413,5.252-10.513,10.851-15.589
		c1.245-1.131,2.567-2.225,3.848-3.283c3.347-2.768,6.808-5.63,9.459-9.555c0.011-0.015,1.045-1.569,1.913-3.428
		C163.292,90.497,163.563,88.483,162.833,87.107z M114.521,46.07c-0.541-0.739-1.168-1.437-1.881-1.978
		c-1.902-1.446-2.953-1.806-2.945-3.074c0-1.257,1.205-2.277,2.687-2.277c0.745,0,1.438,0.255,1.953,0.718
		c0.126,0.112,0.235,0.234,0.33,0.365c0.688,0.871,1.13,2.4,2.015,4.141c0.651,1.106,1.479,2.298,2.442,3.238
		c2.282,2.228,4.692,4.162,6.845,3.237c2.053-0.88,2.256-3.709,2.23-5.761c-0.049-3.992,0.43-5.584,0.839-6.216
		c0.291-0.449,0.581-0.529,1.579-0.61c0.209-0.018,0.484,0.129,0.767,0.397c0.886,0.841,1.743,2.845,1.667,5.427
		c-0.08,2.707,0.51,4.618,1.75,5.679c0.784,0.67,1.771,0.937,2.776,0.746c2.19-0.412,4.091-2.997,6.291-5.99
		c1.635-2.225,3.487-4.745,4.88-5.272c1.536-0.582,3.417-0.183,3.871,0.822c0.225,0.497-1.119,1.544-2.199,2.385
		c-0.792,0.616-1.689,1.314-2.445,2.105c-1.914,1.998-5.246,7.362-6.131,11.915c-1.404-0.554-2.931-0.859-4.525-0.859
		c-6.113,0-11.215,4.459-12.313,10.336c-1.912-0.141-3.391-0.35-4.662-0.574c-0.051-1.521-0.271-3.206-0.652-5.008
		C118.498,54.376,117.251,50.27,114.521,46.07z M133.037,146.581c2.466,0.137,4.157-0.972,6.604-3.205
		c0.426-0.392,0.836-0.535,1.291-0.461c0.588,0.1,1.063,0.535,1.182,0.717c0.244,0.816,0.086,1.277-1.389,1.811
		c-0.18,0.064-0.32,0.115-0.469,0.197c-1.492,0.838-1.676,1.938-1.351,2.689c0.268,0.619,1.079,1.541,3.506,0.772
		c1.041-0.33,2.219-0.09,3.151,0.642c0.648,0.51,0.633,0.84,0.545,1.217c-0.154,0.664-0.577,0.865-0.684,0.881
		c-0.867,0.141-1.688-0.021-2.505-0.488c-0.815-0.471-1.718-0.481-2.414-0.035c-0.597,0.386-0.926,1.062-0.858,1.763
		c0.039,0.42,0.299,1.459,1.842,2.08c1.236,0.498,1.451,1.301,1.576,2.147c0.045,0.308-0.379,1.033-0.711,1.109
		c-0.928,0.217-1.609-0.129-2.148-1.086c-0.801-1.422-2.945-3.896-5.289-4.49c-1.009-0.254-1.958-0.127-2.747,0.371
		c-1.331,0.84-1.335,2.223-1.337,3.139c-0.002,0.48-0.003,0.937-0.132,1.338c-0.134,0.304-0.989,0.812-1.427,0.904
		c-0.189-0.057-0.731-0.281-0.725-0.992c0.004-0.369,0.354-0.965,0.633-1.442c0.299-0.511,0.58-0.99,0.711-1.523
		c0.238-0.963-0.11-1.842-0.935-2.352c-0.571-0.355-1.156-0.761-1.746-1.212c-0.048-0.034-0.101-0.073-0.153-0.112
		c0.491-0.847,0.959-1.707,1.399-2.586c0.039-0.076,0.078-0.154,0.117-0.232c0.112-0.229,0.226-0.461,0.335-0.693
		c0,0,0.001,0,0.001,0.003c0.295-0.621,0.579-1.248,0.849-1.888c0.064-0.151,0.127-0.309,0.188-0.463
		C131.192,146.059,132.179,146.532,133.037,146.581z M157.769,95.121c-2.429,3.592-5.73,6.322-8.927,8.967
		c-1.303,1.077-2.649,2.19-3.942,3.365c-5.978,5.42-9.784,10.923-11.64,16.823c-0.784,2.495-1.452,5.05-2.102,7.523
		c-1.087,4.149-2.212,8.437-3.899,12.483c-0.101,0.147-0.168,0.313-0.205,0.479c-2.427,5.637-5.918,10.603-10.394,14.781
		c-0.3-0.447-0.562-0.945-0.765-1.5c-1.621-4.459-2.42-7.601-1.707-10.465c0.763-3.072,2.4-7.146,3.598-10.117
		c0.354-0.876,0.656-1.633,0.893-2.244l0.055-0.146c1.056-2.76,3.252-8.498,3.011-15.012c-0.028-0.771-0.681-1.372-1.45-1.347
		c-0.773,0.028-1.376,0.678-1.348,1.45c0.22,5.941-1.838,11.32-2.827,13.905l-0.056,0.146c-0.227,0.589-0.526,1.335-0.875,2.199
		c-1.227,3.049-2.906,7.225-3.717,10.485c-0.977,3.931,0.291,7.964,1.793,12.097c0.623,1.713,1.617,3.041,2.758,4.037
		c0.136,0.098,0.274,0.202,0.416,0.307c0.006-0.002,0.011-0.006,0.016-0.01c0.412,0.305,0.839,0.608,1.295,0.852
		c1.246,0.658,2.574,0.713,3.723,0.713c0.795,0,1.582-0.084,2.42-0.176c0.731-0.078,1.488-0.158,2.28-0.184
		c0.035-0.002,0.073-0.002,0.11-0.002c0.85,0,1.349,0.295,1.617,0.543c0.351,0.323,0.535,0.752,0.535,1.237
		c0,0.918-0.713,1.896-2.033,1.896c-0.077,0-0.155-0.004-0.232-0.01c-0.009-0.002-0.02-0.002-0.027-0.002
		c-0.08-0.007-0.156-0.017-0.229-0.031c-0.021-0.004-0.045-0.01-0.063-0.012c-0.673-0.132-1.326,0.221-1.594,0.854
		c-0.314,0.752,0.023,1.662,0.824,2.213c0.04,0.027,0.082,0.053,0.124,0.076c0.821,0.447,1.789,0.793,2.815,1.158
		c1.567,0.559,3.189,1.137,4.377,2.133c0.008,0.006,0.017,0.014,0.023,0.02c0.571,0.457,0.938,0.914,1.119,1.396
		c0.004,0.01,0.007,0.02,0.012,0.029c0.262,0.647,0.203,1.354-0.156,1.891c-0.334,0.498-0.879,0.773-1.537,0.773
		c-0.065,0-0.135-0.005-0.205-0.011c-0.088-0.008-0.178-0.018-0.272-0.032c-0.015-0.003-0.026-0.005-0.042-0.007
		c-0.125-0.016-0.257-0.043-0.393-0.084c-0.014-0.004-0.025-0.008-0.039-0.012c-1.309-0.35-2.438-1.254-3.151-1.949
		c-0.203-0.196-0.426-0.426-0.665-0.672c-1.08-1.106-2.559-2.623-4.072-3.115c-0.565-0.184-1.188,0.013-1.548,0.486
		c-0.36,0.475-0.38,1.125-0.05,1.621c0.725,1.086,1.941,2.457,3.621,4.08c0.054,0.051,0.094,0.09,0.113,0.109
		c0.404,0.399,1.019,1.422,1.349,2.44c0.011,0.035,0.022,0.07,0.038,0.104c0.04,0.098,0.066,0.194,0.079,0.286
		c0.005,0.039,0.012,0.078,0.021,0.117c0.242,1.107-0.084,1.521-0.193,1.658c-0.295,0.373-0.771,0.453-1.116,0.453
		c-0.188,0-0.396-0.021-0.618-0.064c-1.994-0.373-3.146-2.336-4.16-4.063c-0.347-0.592-0.674-1.148-1.015-1.613
		c-0.166-0.225-0.341-0.42-0.522-0.58c-0.402-0.354-0.973-0.446-1.467-0.237c-0.495,0.207-0.826,0.68-0.855,1.215
		c-0.024,0.457,0.059,1.209,0.595,2.188c0.083,0.152,0.171,0.31,0.258,0.467l0.015,0.025c0.707,1.271,1.584,2.848,1.691,4.18
		c0.002,0.029,0.006,0.06,0.01,0.088c0.032,0.226,0.034,0.425,0.006,0.613c-0.014,0.094-0.051,0.34-0.242,0.64
		c-0.014,0.021-0.026,0.043-0.039,0.065c-0.198,0.353-0.491,0.631-0.894,0.851c-0.258,0.141-0.521,0.209-0.806,0.209
		c-1.085,0-2.186-1.076-2.942-2.882c-0.006-0.014-0.012-0.026-0.019-0.041c-0.206-0.448-0.387-0.924-0.534-1.409
		c-0.162-0.529-0.313-1.162-0.474-1.994c-0.004-0.013-0.006-0.023-0.008-0.035c-0.203-0.926-0.289-1.871-0.363-2.705
		c-0.039-0.457-0.078-0.889-0.133-1.273c-0.002-0.018-0.006-0.034-0.008-0.053c-0.584-3.211-1.39-6.465-3.326-8.512
		c-0.062-0.064-0.281-0.301-0.603-0.646c0.015-0.01,0.026-0.018,0.042-0.026c-0.227-0.238-0.447-0.474-0.659-0.693
		c-4.405-4.633-5.452-5.731-9.149-13.867c-2.891-6.36-3.167-12.76-0.868-20.14c4.295-13.79,10.729-20.905,10.809-20.994
		c0.524-0.568,0.488-1.453-0.078-1.977c-0.568-0.525-1.453-0.49-1.979,0.077c-0.28,0.304-6.92,7.601-11.424,22.062
		c-2.481,7.964-2.156,15.202,0.993,22.13c3.31,7.281,4.774,9.391,7.866,12.729c-0.261,0.129-0.521,0.262-0.785,0.387
		c-2.355,1.131-4.872,2.143-7.484,3.014c-1.205-0.572-2.872-0.735-5.087-0.49c0.316-0.315,0.5-0.657,0.605-0.942
		c0.657-1.771-0.632-3.822-2.179-4.854c-1.859-1.237-5.435-0.621-11.956,2.063c-0.733,0.303-1.532,0.688-2.304,1.059
		c-0.884,0.426-2.298,1.107-3.293,1.422c-0.002,0.002-0.004,0.004-0.006,0.004c-0.004,0.002-0.007,0.002-0.012,0.002
		c0.036-0.03,0.073-0.063,0.112-0.096c0.001-0.002,0.3-0.248,0.404-0.33c0.872-0.682,1.86-1.319,2.815-1.938
		c0.674-0.437,1.371-0.885,2.039-1.357c6.248-4.416,10.609-9.358,12.962-14.697c2.338-5.305,1.88-10.643-1.291-15.03
		c-3.795-5.254-11.08-8.33-18.126-7.653c-5.707,0.547-10.661,2.326-15.144,5.438c-3.769,2.615-7.313,6.238-11.154,11.406
		c-0.461,0.619-0.333,1.496,0.288,1.957c0.62,0.463,1.498,0.334,1.958-0.287c5.57-7.491,12.372-14.581,24.318-15.728
		c6.092-0.585,12.356,2.03,15.589,6.506c1.814,2.511,3.46,6.677,0.998,12.263c-2.145,4.865-6.188,9.423-12.015,13.539
		c-0.621,0.439-1.263,0.854-1.943,1.293c-1.007,0.65-2.049,1.324-3.021,2.084c-0.12,0.095-0.465,0.379-0.477,0.39
		c-0.843,0.713-1.948,1.813-1.815,3.125c0.023,0.233,0.102,0.58,0.333,0.934l0,0c0.006,0.01,0.015,0.021,0.021,0.031
		c0.012,0.018,0.023,0.033,0.036,0.051c0.015,0.021,0.03,0.041,0.045,0.062c0.012,0.016,0.024,0.03,0.038,0.047
		c0.018,0.021,0.037,0.043,0.056,0.065c0.012,0.015,0.024,0.027,0.037,0.041c0.022,0.023,0.046,0.047,0.07,0.07
		c0.012,0.012,0.023,0.022,0.035,0.035c0.028,0.026,0.059,0.053,0.089,0.08c0.009,0.008,0.018,0.016,0.028,0.022
		c0.038,0.031,0.078,0.063,0.12,0.095c0.004,0.002,0.007,0.006,0.011,0.008c0.094,0.067,0.196,0.135,0.309,0.194
		c1.702,0.933,4.178-0.26,6.8-1.522c0.548-0.265,1.073-0.519,1.568-0.738c1.347-0.664,2.722-1.262,4.145-1.764
		c1.709-0.603,4.771-2.121,6.487-0.89c1.186,0.853,1.004,2.33-0.254,2.974c-1.257,0.641-2.749,0.592-4.121,0.653
		c-1.102,0.052-3.869-0.178-3.67,1.552c0.086,0.75,1.955,1.19,2.521,1.36c1.23,0.369,2.86,0.023,4.121-0.114
		c1.204-0.134,2.382-0.414,3.586-0.543c1.919-0.207,4.944-0.377,5.168,2.192c-0.006-0.074-0.012-0.135-0.016-0.184
		c0.005,0.057,0.01,0.119,0.016,0.184c0.006,0.072,0.012,0.133,0.016,0.183c-0.005-0.058-0.01-0.119-0.016-0.183
		c0.298,3.424-4.993,1.328-6.661,0.912c-1.417-0.354-2.796-0.682-4.261-0.793c-1.005-0.074-2.532-0.338-3.112,0.695
		c-0.167,1.223,1.664,1.459,2.492,1.641c1.827,0.404,3.595,0.892,5.334,1.59c1.422,0.57,4.038,1.429,4.418,3.146
		c0.37,1.672-1.166,2.295-2.421,1.44c-1.031-0.7-1.881-1.502-2.985-2.114c-2.641-1.468-5.35-2.691-8.359-3.185
		c-1.259-0.207-2.72,0.455-1.461,1.658c0.825,0.789,1.797,1.084,2.829,1.475c2.392,0.91,5.887,2.064,7.434,4.234
		c0.839,1.176,0.401,3.314-1.464,2.65c-1.225-0.437-1.73-1.929-2.694-2.718c-1.188-0.971-2.542-1.778-3.97-2.358
		c-0.529-0.195-1.111-0.39-1.758-0.572c-1.804-0.516-3.918-0.979-6.158-1.467c-2.746-0.603-5.584-1.221-8.413-2.045
		c-3.793-1.105-7.668-2.459-10.782-3.547c-0.571-0.199-1.122-0.392-1.65-0.574c-1.587-0.551-2.843-1.232-3.757-2.039
		c-0.246-0.217-1.051-1.17-1.331-1.726c-0.284-0.563-0.458-1.19-0.51-1.907c-0.258-3.601,2.047-7.838,4.1-10.377
		c4.614-5.703,13.469-9.869,20.197-11.47c0.752-0.18,1.217-0.934,1.038-1.686c-0.179-0.752-0.933-1.217-1.686-1.039
		c-7.19,1.709-16.696,6.217-21.726,12.434c-2.487,3.074-5.033,7.931-4.716,12.339c0.034,0.477,0.107,0.926,0.208,1.35
		c0,0.004,0,0.004,0,0.008c-2.691-1.492-4.595-3.522-5.673-6.076c-1.815-4.297-1.401-10.135,1.232-17.352
		c2.391-6.553,6.205-13.032,8.983-17.313c7.285-11.227,15.96-20.434,26.521-28.146c2.652-1.938,5.506-3.734,8.271-5.477
		c3.457-2.178,7.031-4.43,10.277-6.992c3.713-2.933,6.75-6.593,9.688-10.134c1.225-1.477,2.491-3.003,3.785-4.448
		c3.53-3.438,7.262-6.112,11.104-7.963c0.096,0.043,0.196,0.076,0.303,0.099c1.541,0.305,3.451,0.634,6.116,0.83
		c0.07,2.178,0.691,4.297,1.806,6.155c0.263,0.438,0.728,0.681,1.202,0.681c0.245,0,0.493-0.064,0.719-0.199
		c0.663-0.396,0.879-1.257,0.481-1.921c-0.927-1.545-1.415-3.323-1.415-5.143c0-5.459,4.365-9.9,9.732-9.9
		c5.366,0,9.732,4.441,9.732,9.9c0,0.263-0.01,0.526-0.029,0.785c0,0.002,0,0.006,0,0.009c-0.002,0.034-0.004,0.069-0.004,0.104
		c0,0.011,0,0.022,0,0.034c0.002,0.036,0.004,0.072,0.008,0.107c0.002,0.011,0.002,0.021,0.004,0.029
		c0.051,0.402,0.273,0.778,0.645,1.012c2.926,1.834,5.494,3.949,7.632,6.289c3.269,3.577,4.956,6.73,4.669,8.707
		c-0.025,0.013-0.053,0.022-0.078,0.036c-1.307,0.688-2.928,1.439-4.644,2.235c-0.629,0.292-1.274,0.592-1.931,0.899
		c-5.463,2.565-9.842,2.92-13.037,3.177c-0.435,0.035-0.848,0.067-1.237,0.104c-3.034,0.283-7.202-0.58-7.276-0.596
		c-0.974-0.206-1.929,0.417-2.134,1.39c-0.206,0.974,0.416,1.929,1.39,2.134c0.164,0.033,3.494,0.729,6.699,0.729
		c0.562,0,1.119-0.021,1.655-0.071c0.376-0.035,0.774-0.066,1.192-0.101c3.472-0.28,8.226-0.663,14.277-3.507
		c0.65-0.307,1.293-0.604,1.916-0.894c1.307-0.604,2.557-1.187,3.684-1.744C160.53,90.012,159.213,92.951,157.769,95.121z"/>
</g>
</svg>
