<?xml version="1.0" encoding="UTF-8" standalone="no"?>
<svg
   xmlns:dc="http://purl.org/dc/elements/1.1/"
   xmlns:cc="http://creativecommons.org/ns#"
   xmlns:rdf="http://www.w3.org/1999/02/22-rdf-syntax-ns#"
   xmlns:svg="http://www.w3.org/2000/svg"
   xmlns="http://www.w3.org/2000/svg"
   xmlns:sodipodi="http://sodipodi.sourceforge.net/DTD/sodipodi-0.dtd"
   xmlns:inkscape="http://www.inkscape.org/namespaces/inkscape"
   id="svg2"
   xml:space="preserve"
   height="148.12"
   width="182.26"
   version="1.1"
   viewBox="0 0 182.66667 150.66667"
   inkscape:version="0.91 r13725"
   sodipodi:docname="Twitter_bird_logo_2012.svg"><sodipodi:namedview
     pagecolor="#ffffff"
     bordercolor="#666666"
     borderopacity="1"
     objecttolerance="10"
     gridtolerance="10"
     guidetolerance="10"
     inkscape:pageopacity="0"
     inkscape:pageshadow="2"
     inkscape:window-width="1366"
     inkscape:window-height="705"
     id="namedview3346"
     showgrid="false"
     inkscape:zoom="3.6321902"
     inkscape:cx="91.129997"
     inkscape:cy="74.059998"
     inkscape:window-x="-8"
     inkscape:window-y="711"
     inkscape:window-maximized="1"
     inkscape:current-layer="svg2" /><metadata
     id="metadata8"><rdf:RDF><cc:Work
         rdf:about=""><dc:format>image/svg+xml</dc:format><dc:type
           rdf:resource="http://purl.org/dc/dcmitype/StillImage" /><dc:title></dc:title></cc:Work></rdf:RDF></metadata><defs
     id="defs6"><clipPath
       id="clipPath20"
       clipPathUnits="userSpaceOnUse"><path
         id="path18"
         d="m0 10.012h1366.9v1110.9h-1366.9z" /></clipPath></defs><path
     id="path22"
     d="m 182.24878,18.754631 c -6.7025,2.974459 -13.91032,4.984809 -21.4728,5.89052 C 168.49445,20.015533 174.42097,12.68825 177.2129,3.9590012 169.98908,8.2455607 161.98928,11.354816 153.46816,13.030774 146.651,5.7656227 136.93258,1.2244029 126.17818,1.2244029 c -20.65148,0 -37.389733,16.7395811 -37.389733,37.3897321 0,2.93166 0.327592,5.786255 0.967709,8.52112 C 58.6796,45.577961 31.128288,30.687666 12.686083,8.0682318 9.4673633,13.588094 7.6236761,20.0102 7.6236761,26.863762 c 0,12.974076 6.5983679,24.416723 16.6342509,31.124555 -6.129047,-0.191595 -11.895436,-1.874353 -16.93691,-4.67695 -0.00573,0.15733 -0.00573,0.313059 -0.00573,0.469322 0,18.119547 12.8903442,33.228503 29.9939172,36.66575 -3.134855,0.854645 -6.437306,1.306634 -9.847754,1.306634 -2.411807,0 -4.750281,-0.228128 -7.037291,-0.66665 4.761348,14.854297 18.567536,25.666027 34.93246,25.968687 -12.807413,10.03041 -28.927277,16.00493 -46.4468387,16.00493 -3.016058,0 -5.9946502,-0.1776 -8.92217699,-0.52132 16.55425269,10.6088 36.20576169,16.79691 57.32390069,16.79691 68.774279,0 106.378669,-56.973239 106.378669,-106.388004 0,-1.620359 -0.0373,-3.229652 -0.10533,-4.833212 7.30249,-5.276001 13.641,-11.859704 18.65687,-19.359516"
     inkscape:connector-curvature="0"
     style="fill:#ffffff" /></svg>